<?xml version="1.0" encoding="UTF-8" standalone="no"?>
<!DOCTYPE svg PUBLIC "-//W3C//DTD SVG 1.1//EN" "http://www.w3.org/Graphics/SVG/1.1/DTD/svg11.dtd">
<!-- Created with Vectornator (http://vectornator.io/) -->
<svg height="100%" stroke-miterlimit="10" style="fill-rule:nonzero;clip-rule:evenodd;stroke-linecap:round;stroke-linejoin:round;" version="1.1" viewBox="0 0 1024 1024" width="100%" xml:space="preserve" xmlns="http://www.w3.org/2000/svg" xmlns:vectornator="http://vectornator.io" xmlns:xlink="http://www.w3.org/1999/xlink">
<defs/>
<clipPath id="ArtboardFrame">
<rect height="1024" width="1024" x="0" y="0"/>
</clipPath>
<g clip-path="url(#ArtboardFrame)" id="Layer-1" vectornator:layerName="Layer 1">
<path d="M9.9476e-14 512C9.9476e-14 229.23 229.23-1.52127e-14 512-1.52127e-14C794.77-1.52127e-14 1024 229.23 1024 512C1024 794.77 794.77 1024 512 1024C229.23 1024 9.9476e-14 794.77 9.9476e-14 512Z" fill="#3395ff" fill-rule="nonzero" opacity="1" stroke="none" vectornator:layerName="Oval 1"/>
<g opacity="1" vectornator:layerName="Landscape">
<path d="M645.203 30.2584C600.962 30.2584 565.097 66.123 565.097 110.364C565.097 154.605 600.962 190.47 645.203 190.47C689.444 190.47 725.309 154.605 725.309 110.364C725.309 66.123 689.444 30.2584 645.203 30.2584ZM654.602 275.889C645.924 265.716 630.25 265.663 621.518 275.756L495.966 420.908C490.519 427.209 482.588 430.814 474.257 430.787L474.257 430.787C449.852 430.707 436.741 402.056 452.655 383.552L510.145 316.69L435.486 213.701C426.941 201.898 409.452 201.631 400.56 213.167L223.66 442.269C210.442 459.358 222.645 484.191 244.247 484.191L783.198 484.191C802.45 484.191 812.864 461.628 800.394 446.969L654.602 275.889Z" fill="#000000" fill-rule="nonzero" opacity="1" stroke="none" vectornator:layerName="path"/>
</g>
<g fill="#000000" opacity="1" stroke="none" vectornator:layerName="Text 1">
<path d="M170.426 596.632C170.426 608.633 166.173 618.558 157.666 626.405C149.16 634.252 138.313 638.175 125.124 638.175C117.08 638.175 106.001 635.472 91.89 630.064C90.8349 629.669 89.9117 629.471 89.1204 629.471C86.8784 629.471 85.164 631.845 83.977 636.593C83.5814 638.043 83.0538 638.769 82.3944 638.769C81.3394 638.769 80.8118 637.845 80.8118 635.999C80.8118 634.285 81.1415 631.251 81.801 626.899C82.3285 623.338 82.5923 619.184 82.5923 614.436C82.5923 610.612 82.5263 607.578 82.3944 605.336C82.1307 600.852 81.9988 598.215 81.9988 597.423C81.9988 595.313 82.6582 594.258 83.977 594.258C85.2958 594.258 86.4828 597.094 87.5379 602.765C89.3842 612.524 93.5385 620.107 100.001 625.514C106.991 631.317 114.508 634.219 122.553 634.219C129.674 634.219 135.675 631.977 140.555 627.493C145.434 623.009 147.874 617.536 147.874 611.073C147.874 605.534 146.292 601.116 143.126 597.819C140.753 595.445 133.103 590.763 120.179 583.774C105.804 576.124 96.0443 568.475 90.9009 560.826C86.1531 553.836 83.7792 545.528 83.7792 535.9C83.7792 524.558 87.8016 515.162 95.8465 507.71C103.891 500.259 114.046 496.533 126.311 496.533C132.906 496.533 139.961 498.116 147.479 501.281C149.984 502.336 151.765 502.864 152.82 502.864C154.798 502.864 156.117 501.149 156.776 497.72C157.04 496.533 157.634 495.94 158.557 495.94C159.876 495.94 160.535 496.797 160.535 498.511C160.535 499.171 160.403 501.017 160.139 504.05C159.876 507.084 159.744 509.59 159.744 511.568C159.744 518.426 160.007 524.229 160.535 528.976C160.667 529.372 160.733 529.899 160.733 530.559C160.733 531.746 160.205 532.339 159.15 532.339C157.963 532.339 156.776 530.229 155.589 526.009C154.402 521.789 152.325 517.601 149.358 513.447C146.391 509.293 143.39 506.292 140.357 504.446C136.4 502.072 131.784 500.885 126.509 500.885C119.124 500.885 113.255 502.666 108.903 506.227C104.551 509.787 102.375 514.667 102.375 520.866C102.375 526.273 104.419 531.053 108.507 535.208C112.596 539.362 120.443 544.67 132.048 551.133C146.292 559.046 155.721 565.376 160.337 570.124C167.063 577.113 170.426 585.95 170.426 596.632Z"/>
<path d="M259.843 611.469C259.843 614.37 258.128 618.195 254.699 622.943C247.314 633.098 237.686 638.175 225.817 638.175C212.497 638.175 201.55 633.955 192.978 625.514C184.406 617.074 180.12 606.26 180.12 593.071C180.12 580.147 184.274 569.365 192.582 560.727C200.891 552.089 211.244 547.77 223.641 547.77C232.081 547.77 239.269 549.616 245.204 553.309C251.798 557.397 256.084 563.266 258.062 570.915C258.59 573.289 258.985 576.124 259.249 579.421C256.216 579.685 244.017 579.883 222.652 580.015C219.355 580.015 215.2 580.147 210.189 580.411C209.793 585.158 209.595 589.181 209.595 592.478C209.595 607.908 212.826 618.854 219.289 625.317C223.113 629.141 227.795 631.054 233.334 631.054C237.95 631.054 242.401 629.471 246.687 626.306C250.973 623.141 254.238 619.052 256.48 614.041C257.535 611.535 258.392 610.282 259.051 610.282C259.579 610.282 259.843 610.678 259.843 611.469ZM234.917 577.048C235.049 566.893 234.323 559.837 232.741 555.88C231.158 551.924 228.389 549.946 224.432 549.946C216.387 549.946 211.771 558.98 210.584 577.048C213.354 576.916 219.157 576.85 227.993 576.85C230.631 576.85 232.939 576.916 234.917 577.048Z"/>
<path d="M388.23 551.33C388.23 552.254 386.648 552.781 383.483 552.913C380.845 553.045 379.098 553.474 378.24 554.199C377.383 554.924 376.361 556.738 375.174 559.639C372.8 565.442 368.415 577.377 362.019 595.445C355.622 613.513 351.105 626.899 348.468 635.603C347.808 637.977 346.951 639.164 345.896 639.164C345.105 639.164 344.445 638.505 343.918 637.186C343.127 635.208 341.874 632.175 340.159 628.086C338.972 625.317 335.016 615.096 328.29 597.423C327.367 594.918 325.52 590.17 322.751 583.18C321.036 587.928 318.069 595.973 313.849 607.315C311.079 614.964 307.848 624.196 304.155 635.01C303.232 637.648 302.243 638.966 301.188 638.966C300.528 638.966 299.803 637.911 299.012 635.801C298.748 635.274 296.308 628.746 291.692 616.217C284.307 596.302 276.921 577.641 269.536 560.233C268.217 557.199 267.228 555.287 266.569 554.496C265.514 553.309 263.733 552.715 261.227 552.715C257.271 552.847 255.293 552.385 255.293 551.33C255.293 550.275 256.084 549.748 257.667 549.748L259.843 549.748C262.085 549.748 264.656 549.847 267.558 550.045C270.459 550.242 272.569 550.341 273.888 550.341C284.834 550.341 292.549 550.209 297.034 549.946C299.276 549.814 301.518 549.748 303.76 549.748C306.265 549.748 307.518 550.143 307.518 550.935C307.518 551.726 305.573 552.188 301.682 552.32C297.792 552.451 295.847 553.506 295.847 555.485C295.847 556.804 298.88 565.706 304.946 582.191C307.584 589.313 309.892 596.039 311.87 602.369C313.189 599.336 315.233 593.994 318.003 586.345L327.103 561.222C329.872 553.309 331.916 549.352 333.235 549.352C334.29 549.352 336.4 553.375 339.566 561.419C340.753 564.453 342.995 570.058 346.292 578.234L352.82 593.665C353.347 594.72 354.468 597.226 356.183 601.182C366.206 574.937 371.218 559.837 371.218 555.88C371.218 554.166 369.965 553.177 367.459 552.913C367.327 552.913 365.415 552.913 361.722 552.913C359.48 552.913 358.359 552.385 358.359 551.33C358.359 550.407 359.084 549.946 360.535 549.946L370.031 550.143L381.9 550.143C382.823 550.143 383.812 550.078 384.867 549.946C385.922 549.946 386.45 549.946 386.45 549.946C387.637 549.946 388.23 550.407 388.23 551.33Z"/>
<path d="M471.91 625.119C471.91 626.174 470.855 627.625 468.745 629.471C463.074 634.614 456.084 637.186 447.775 637.186C442.368 637.186 438.445 636.065 436.005 633.823C433.565 631.581 431.949 627.559 431.158 621.756C425.223 632.57 417.113 637.977 406.826 637.977C401.155 637.977 396.572 636.197 393.077 632.636C389.582 629.075 387.835 624.459 387.835 618.788C387.835 602.171 402.078 592.346 430.565 589.313L430.565 585.158C430.565 571.97 430.103 563.859 429.18 560.826L428.982 559.837C427.136 553.243 422.454 549.946 414.937 549.946C410.585 549.946 407.09 551.199 404.452 553.704C401.814 556.21 400.495 558.65 400.495 561.024C400.495 562.343 402.078 563.134 405.243 563.398C409.991 563.793 412.365 566.695 412.365 572.102C412.365 575.003 411.409 577.41 409.496 579.323C407.584 581.235 405.111 582.191 402.078 582.191C398.253 582.191 395.121 581.037 392.681 578.729C390.242 576.421 389.022 573.487 389.022 569.926C389.022 564.255 391.857 559.112 397.528 554.496C403.199 549.88 410.65 547.572 419.882 547.572C433.598 547.572 443.16 550.012 448.567 554.891C452.919 558.98 455.095 566.101 455.095 576.256L455.095 610.084C455.095 616.678 455.161 620.503 455.293 621.558C455.952 627.097 457.864 629.867 461.03 629.867C463.272 629.867 466.041 628.284 469.338 625.119C469.998 624.459 470.525 624.13 470.921 624.13C471.58 624.13 471.91 624.459 471.91 625.119ZM430.565 601.578L430.565 591.884C417.772 594.39 411.376 601.644 411.376 613.645C411.376 622.877 414.541 627.493 420.871 627.493C424.432 627.493 426.938 625.514 428.389 621.558C429.839 617.601 430.565 610.941 430.565 601.578Z"/>
<path d="M577.944 634.417C577.944 635.34 575.504 635.801 570.624 635.801L567.261 635.801C564.755 635.801 561.359 635.735 557.073 635.603C552.787 635.472 548.666 635.406 544.709 635.406C539.83 635.406 536.137 635.472 533.631 635.603C531.125 635.735 529.345 635.801 528.29 635.801C526.443 635.801 525.52 635.34 525.52 634.417C525.52 633.493 527.301 632.966 530.862 632.834C533.104 632.702 534.225 631.977 534.225 630.658C534.225 629.339 531.455 624.196 525.916 615.228C524.333 612.854 522.025 609.161 518.992 604.149C516.882 600.457 513.849 595.643 509.892 589.708L509.892 618.986C509.892 625.976 510.123 630.064 510.585 631.251C511.046 632.438 512.53 633.032 515.036 633.032C515.827 633.032 516.486 632.966 517.014 632.834L518.596 632.834C519.915 632.834 520.575 633.361 520.575 634.417C520.575 635.472 519.849 635.999 518.399 635.999L517.607 635.999L512.464 635.801L505.936 635.801L493.671 635.603L474.482 635.603C473.822 635.735 473.097 635.801 472.306 635.801C470.855 635.801 470.13 635.34 470.13 634.417C470.13 633.493 471.844 632.966 475.273 632.834C479.625 632.702 482.098 632.306 482.691 631.647C483.285 630.988 483.582 627.691 483.582 621.756L483.384 517.503C483.384 512.359 482.823 509.194 481.702 508.007C480.581 506.82 477.581 506.292 472.701 506.424C470.195 506.424 468.943 505.963 468.943 505.04C468.943 504.248 469.206 503.787 469.734 503.655C470.261 503.523 472.174 503.391 475.471 503.259C488.791 502.732 498.155 501.017 503.562 498.116C505.408 497.061 506.991 496.467 508.31 496.335C508.837 498.182 509.167 501.743 509.299 507.018L509.694 528.185C509.826 535.307 509.892 545.264 509.892 558.056L509.892 586.939C512.002 585.224 515.431 581.729 520.179 576.454C522.157 574.212 525.125 570.849 529.081 566.365C535.411 559.243 538.577 555.419 538.577 554.891C538.577 554.232 538.181 553.836 537.39 553.704C536.598 553.572 533.961 553.441 529.477 553.309C526.443 553.309 524.927 552.715 524.927 551.528C524.927 550.473 525.718 549.946 527.301 549.946L542.335 550.341L557.766 549.946C560.139 549.946 561.326 550.341 561.326 551.133C561.326 551.924 558.623 552.451 553.216 552.715C549.655 552.847 546.753 554.034 544.511 556.276C540.423 560.233 535.214 565.772 528.883 572.893L551.633 607.315C552.82 609.293 554.732 612.26 557.37 616.217C557.766 616.744 558.755 618.195 560.337 620.569L563.7 625.317L565.283 627.691C566.734 629.933 567.921 631.35 568.844 631.944C569.767 632.537 571.514 632.834 574.086 632.834C576.658 632.834 577.944 633.361 577.944 634.417Z"/>
<path d="M612.365 623.338C612.365 627.427 611.046 630.79 608.409 633.427C605.771 636.065 602.408 637.384 598.32 637.384C594.231 637.384 590.802 636.032 588.033 633.328C585.263 630.625 583.878 627.295 583.878 623.338C583.878 619.25 585.263 615.821 588.033 613.052C590.802 610.282 594.231 608.897 598.32 608.897C602.144 608.897 605.441 610.282 608.211 613.052C610.98 615.821 612.365 619.25 612.365 623.338Z"/>
<path d="M705.738 567.948C705.738 571.113 704.815 573.685 702.968 575.663C701.122 577.641 698.748 578.63 695.847 578.63C688.857 578.63 685.362 575.531 685.362 569.332C685.362 567.75 685.791 565.87 686.648 563.694C687.505 561.518 687.934 559.969 687.934 559.046C687.934 556.54 686.978 554.397 685.065 552.616C683.153 550.836 680.812 549.946 678.043 549.946C666.041 549.946 660.041 563.332 660.041 590.104C660.041 605.402 662.678 616.349 667.954 622.943C672.042 627.954 677.053 630.46 682.988 630.46C689.187 630.46 695.517 626.438 701.979 618.393C702.771 617.338 703.496 616.81 704.155 616.81C704.683 616.81 704.947 617.206 704.947 617.997C704.947 620.503 702.573 623.998 697.825 628.482C690.967 634.944 682.724 638.175 673.097 638.175C661.228 638.175 651.106 633.922 642.731 625.416C634.356 616.909 630.169 606.589 630.169 594.456C630.169 581.268 634.587 570.157 643.423 561.123C652.26 552.089 663.14 547.572 676.064 547.572C684.373 547.572 691.396 549.55 697.133 553.506C702.87 557.463 705.738 562.277 705.738 567.948Z"/>
<path d="M801.683 593.665C801.683 607.776 796.144 619.184 785.065 627.888C776.361 634.746 766.8 638.175 756.381 638.175C743.984 638.175 733.268 633.724 724.235 624.822C715.201 615.92 710.684 605.402 710.684 593.269C710.684 580.608 715.201 569.827 724.235 560.925C733.268 552.023 744.182 547.572 756.974 547.572C769.239 547.572 779.757 552.089 788.527 561.123C797.298 570.157 801.683 581.004 801.683 593.665ZM771.811 593.863C771.811 577.509 770.69 566.299 768.448 560.233C765.942 553.506 761.92 550.143 756.381 550.143C751.237 550.143 747.215 553.671 744.314 560.727C741.412 567.783 739.962 577.509 739.962 589.906C739.962 607.183 741.676 619.448 745.105 626.701C747.874 632.504 751.765 635.406 756.777 635.406C762.975 635.406 767.063 631.713 769.042 624.327C770.888 617.338 771.811 607.183 771.811 593.863Z"/>
<path d="M965.085 634.812C965.085 635.999 964.096 636.461 962.118 636.197L958.557 636.197L952.82 635.999C948.996 635.867 944.38 635.801 938.973 635.801L927.894 635.801C927.499 635.801 926.51 635.867 924.927 635.999C923.344 635.999 921.894 635.999 920.575 635.999L918.003 635.999C916.157 635.999 915.234 635.603 915.234 634.812C915.234 634.153 916.75 633.757 919.784 633.625C923.608 633.493 925.52 632.306 925.52 630.064L925.52 585.95C925.52 572.366 925.059 564.189 924.136 561.419C922.817 557.595 919.52 555.683 914.244 555.683C909.365 555.683 905.54 557.793 902.771 562.013C901.584 563.727 900.924 565.64 900.792 567.75C900.529 570.256 900.397 577.048 900.397 588.126L900.397 625.712C900.397 629.669 900.759 631.977 901.485 632.636C902.21 633.296 904.683 633.625 908.903 633.625C910.09 633.625 910.684 633.955 910.684 634.614C910.684 635.669 909.958 636.197 908.508 636.197C907.189 636.197 906.134 636.131 905.342 635.999L866.965 635.603C865.778 635.603 865.184 635.208 865.184 634.417C865.184 633.625 866.767 633.23 869.932 633.23C872.306 633.23 873.691 632.9 874.086 632.24L874.482 630.262L874.482 581.795C874.482 569.398 873.757 561.914 872.306 559.342C870.855 556.771 867.888 555.485 863.404 555.485C857.997 555.485 853.974 557.727 851.336 562.211C850.413 563.925 849.853 565.673 849.655 567.453C849.457 569.234 849.358 574.41 849.358 582.982L849.358 622.151C849.358 628.218 849.721 631.548 850.446 632.142C851.172 632.735 852.985 633.032 855.886 633.032L858.854 633.032C860.173 633.032 860.832 633.427 860.832 634.219C860.832 635.142 860.239 635.603 859.052 635.603C857.337 635.603 855.755 635.538 854.304 635.406L845.995 635.406C835.445 635.669 829.84 635.867 829.18 635.999C822.85 636.263 818.168 636.395 815.135 636.395L812.365 636.395C810.651 636.395 809.793 635.867 809.793 634.812C809.793 633.889 810.387 633.427 811.574 633.427L816.124 633.625C818.366 633.757 820.212 633.23 821.663 632.043C822.718 631.119 823.245 628.35 823.245 623.734L823.245 591.093C823.245 572.761 822.982 562.936 822.454 561.617C821.399 560.43 817.311 559.837 810.189 559.837C808.343 559.837 807.42 559.375 807.42 558.452C807.42 557.397 808.277 556.869 809.991 556.869C823.179 556.606 834.917 553.704 845.204 548.165C846.391 547.506 847.248 547.176 847.776 547.176C848.435 547.176 848.765 547.704 848.765 548.759C848.765 550.737 848.699 552.385 848.567 553.704L848.567 562.013C854.634 552.254 863.602 547.374 875.471 547.374C888.791 547.374 896.638 552.715 899.012 563.398C902.045 557.727 905.738 553.671 910.09 551.232C914.442 548.792 920.179 547.572 927.301 547.572C944.05 547.572 952.425 556.804 952.425 575.267C952.425 575.663 952.425 576.652 952.425 578.234C952.293 579.817 952.227 581.136 952.227 582.191L952.227 623.932C952.227 628.152 952.392 630.724 952.721 631.647C953.051 632.57 954.139 633.098 955.985 633.23C958.623 633.493 960.997 633.625 963.107 633.625C964.426 633.625 965.085 634.021 965.085 634.812Z"/>
</g>
</g>
</svg>
